<svg width="6" height="10" viewBox="0 0 6 10" fill="none" xmlns="http://www.w3.org/2000/svg">
<path d="M2.25 6.49006V6.40909C2.25568 5.88068 2.30824 5.46023 2.40767 5.14773C2.50994 4.83523 2.65483 4.58239 2.84233 4.3892C3.02983 4.19602 3.25568 4.01989 3.51989 3.8608C3.69034 3.75284 3.84375 3.6321 3.98011 3.49858C4.11648 3.36506 4.22443 3.21165 4.30398 3.03835C4.38352 2.86506 4.4233 2.6733 4.4233 2.46307C4.4233 2.21023 4.36364 1.99148 4.24432 1.80682C4.125 1.62216 3.96591 1.48011 3.76705 1.38068C3.57102 1.27841 3.35227 1.22727 3.1108 1.22727C2.89205 1.22727 2.68324 1.27273 2.48438 1.36364C2.28551 1.45455 2.12074 1.59659 1.99006 1.78977C1.85938 1.98011 1.78409 2.22585 1.7642 2.52699H0.46875C0.488636 2.01562 0.617898 1.58381 0.856534 1.23153C1.09517 0.87642 1.41051 0.607954 1.80256 0.426136C2.19744 0.244318 2.63352 0.153409 3.1108 0.153409C3.63352 0.153409 4.09091 0.25142 4.48295 0.447443C4.875 0.640625 5.17898 0.911932 5.39489 1.26136C5.61364 1.60795 5.72301 2.01278 5.72301 2.47585C5.72301 2.79403 5.6733 3.08097 5.57386 3.33665C5.47443 3.58949 5.33239 3.81534 5.14773 4.0142C4.96591 4.21307 4.74716 4.3892 4.49148 4.54261C4.25 4.69318 4.05398 4.84943 3.90341 5.01136C3.75568 5.1733 3.64773 5.36506 3.57955 5.58665C3.51136 5.80824 3.47443 6.08239 3.46875 6.40909V6.49006H2.25ZM2.89347 9.08097C2.66051 9.08097 2.46023 8.99858 2.29261 8.83381C2.125 8.66619 2.04119 8.46449 2.04119 8.22869C2.04119 7.99574 2.125 7.79687 2.29261 7.6321C2.46023 7.46449 2.66051 7.38068 2.89347 7.38068C3.12358 7.38068 3.32244 7.46449 3.49006 7.6321C3.66051 7.79687 3.74574 7.99574 3.74574 8.22869C3.74574 8.38494 3.70597 8.52841 3.62642 8.65909C3.54972 8.78693 3.44744 8.8892 3.3196 8.96591C3.19176 9.04261 3.04972 9.08097 2.89347 9.08097Z" fill="#303030"/>
</svg>
