<svg width="6" height="10" fill="none" xmlns="http://www.w3.org/2000/svg"><path d="M2.25 6.49v-.08c.006-.53.058-.95.158-1.262a1.93 1.93 0 01.434-.759c.188-.193.414-.37.678-.528.17-.108.324-.229.46-.362a1.56 1.56 0 00.324-.46c.08-.174.12-.366.12-.576 0-.253-.06-.472-.18-.656a1.193 1.193 0 00-.477-.426 1.397 1.397 0 00-.656-.154 1.49 1.49 0 00-.627.137c-.198.09-.363.233-.494.426-.13.19-.206.436-.226.737H.47c.02-.511.149-.943.388-1.295a2.26 2.26 0 01.946-.806A3.09 3.09 0 013.11.153c.523 0 .98.098 1.372.294.392.194.696.465.912.814.219.347.328.752.328 1.215 0 .318-.05.605-.15.86a2.11 2.11 0 01-.425.678c-.182.2-.4.375-.657.529-.241.15-.437.306-.588.468a1.492 1.492 0 00-.323.576 3.013 3.013 0 00-.111.822v.081H2.25zm.643 2.591a.827.827 0 01-.6-.247.825.825 0 01-.252-.605c0-.233.084-.432.252-.597a.82.82 0 01.6-.251c.23 0 .43.083.597.251a.8.8 0 01.256.597c0 .156-.04.3-.12.43a.881.881 0 01-.306.307.812.812 0 01-.427.115z" fill="#303030"/></svg>